# xmcd CD database file
#
# Track frame offsets:
#	150
#	18017
#	30471
#	43963
#	58107
#	67772
#	82532
#	101548
#	114473
#	131717
#	147706
#	160364
#	176078
#	193875
#	207928
#	224290
#	233603
#	247736
#
# Disc length: 3501 seconds
#
# Revision: 0
# Processed by: cddbd v1.5.1PL2 Copyright (c) Steve Scherf et al.
# Submitted via: CDex 1.50
#
DISCID=f50dab12
DTITLE=Line Dance - Workshop 2
DYEAR=1900
DGENRE=Country
TTITLE0=Storm in a Cup
TTITLE1=Hearts and Flowers
TTITLE2=Sirtaki
TTITLE3=For Love´s Sake
TTITLE4=Fischer´s Hornpipe
TTITLE5=Country Roads
TTITLE6=Southern Delight
TTITLE7=Sugar Sugar
TTITLE8=Lovin´ all Night
TTITLE9=Buy me that Drink
TTITLE10=Live a little
TTITLE11=Riding alone
TTITLE12=Margarita Cha
TTITLE13=Single Walz
TTITLE14=Ritas Waltz
TTITLE15=Honky tonk Song
TTITLE16=My toot toot
TTITLE17=Music of Love
EXTD=
EXTT0=
EXTT1=
EXTT2=
EXTT3=
EXTT4=
EXTT5=
EXTT6=
EXTT7=
EXTT8=
EXTT9=
EXTT10=
EXTT11=
EXTT12=
EXTT13=
EXTT14=
EXTT15=
EXTT16=
EXTT17=
PLAYORDER=
